<svg xmlns="http://www.w3.org/2000/svg" xmlns:xlink="http://www.w3.org/1999/xlink" width="601" zoomAndPan="magnify" viewBox="0 0 450.75 233.999995" height="312" preserveAspectRatio="xMidYMid meet" version="1.0"><defs><g/><clipPath id="85c83f757d"><path d="M 0 0.0664062 L 450.5 0.0664062 L 450.5 233.933594 L 0 233.933594 Z M 0 0.0664062 " clip-rule="nonzero"/></clipPath><clipPath id="133b766008"><path d="M 14 11 L 421 11 L 421 232 L 14 232 Z M 14 11 " clip-rule="nonzero"/></clipPath><clipPath id="7f43a28595"><path d="M 12.996094 59.824219 L 12.996094 183.109375 C 12.996094 210.847656 35.484375 233.332031 63.21875 233.332031 L 372.347656 233.332031 C 400.085938 233.332031 422.570312 210.847656 422.570312 183.109375 L 422.570312 59.824219 C 422.570312 32.085938 400.085938 9.601562 372.347656 9.601562 L 63.21875 9.601562 C 35.484375 9.601562 12.996094 32.085938 12.996094 59.824219 Z M 12.996094 59.824219 " clip-rule="nonzero"/></clipPath><clipPath id="12e9b93eb5"><path d="M 13 9.601562 L 422.269531 9.601562 L 422.269531 232.976562 L 13 232.976562 Z M 13 9.601562 " clip-rule="nonzero"/></clipPath><clipPath id="9608d9b66d"><path d="M 12.996094 59.824219 L 12.996094 183.109375 C 12.996094 210.847656 35.484375 233.332031 63.21875 233.332031 L 372.347656 233.332031 C 400.085938 233.332031 422.570312 210.847656 422.570312 183.109375 L 422.570312 59.824219 C 422.570312 32.085938 400.085938 9.601562 372.347656 9.601562 L 63.21875 9.601562 C 35.484375 9.601562 12.996094 32.085938 12.996094 59.824219 Z M 12.996094 59.824219 " clip-rule="nonzero"/></clipPath></defs><g clip-path="url(#85c83f757d)"><path fill="#ffffff" d="M 0 0.0664062 L 450.5 0.0664062 L 450.5 233.933594 L 0 233.933594 Z M 0 0.0664062 " fill-opacity="1" fill-rule="nonzero"/></g><g clip-path="url(#133b766008)"><g clip-path="url(#7f43a28595)"><path fill="#f2ede0" d="M 14.605469 11.09375 L 420.957031 11.09375 L 420.957031 231.839844 L 14.605469 231.839844 Z M 14.605469 11.09375 " fill-opacity="1" fill-rule="nonzero"/></g></g><g clip-path="url(#12e9b93eb5)"><g clip-path="url(#9608d9b66d)"><path fill="#ffffff" d="M 420.957031 233.328125 L 14.605469 233.328125 C 13.769531 233.328125 13.113281 232.671875 13.113281 231.839844 L 13.113281 11.09375 C 13.113281 10.257812 13.769531 9.601562 14.605469 9.601562 L 420.957031 9.601562 C 421.789062 9.601562 422.445312 10.257812 422.445312 11.09375 L 422.445312 231.839844 C 422.445312 232.671875 421.789062 233.328125 420.957031 233.328125 Z M 16.097656 230.347656 L 419.464844 230.347656 L 419.464844 12.585938 L 16.097656 12.585938 Z M 16.097656 230.347656 " fill-opacity="1" fill-rule="nonzero"/></g></g><g fill="#000000" fill-opacity="1"><g transform="translate(59.672277, 155.336577)"><g><path d="M 11.125 -40.28125 C 11.125 -43.050781 10.460938 -45.109375 9.140625 -46.453125 C 7.816406 -47.804688 5.601562 -48.6875 2.5 -49.09375 C 5.726562 -51.332031 8.296875 -53.421875 10.203125 -55.359375 C 12.117188 -57.296875 13.726562 -59.382812 15.03125 -61.625 C 17.394531 -60.03125 19.148438 -57.9375 20.296875 -55.34375 C 21.441406 -52.757812 22.015625 -49.59375 22.015625 -45.84375 L 22.015625 -44.078125 L 43.21875 -61.75 C 44.195312 -59.175781 45.5 -57.175781 47.125 -55.75 C 48.757812 -54.320312 50.535156 -53.609375 52.453125 -53.609375 C 52.859375 -53.609375 53.550781 -53.710938 54.53125 -53.921875 C 54.851562 -54.003906 55.078125 -54.066406 55.203125 -54.109375 C 54.710938 -52.796875 54.078125 -51.640625 53.296875 -50.640625 C 52.523438 -49.648438 51.53125 -48.742188 50.3125 -47.921875 L 50.3125 -21.03125 C 50.3125 -18.425781 50.523438 -15.96875 50.953125 -13.65625 C 51.378906 -11.351562 52.039062 -9.101562 52.9375 -6.90625 C 51.632812 -6.988281 50.65625 -7.050781 50 -7.09375 C 49.351562 -7.132812 48.804688 -7.15625 48.359375 -7.15625 C 44.972656 -7.15625 41.210938 -6.390625 37.078125 -4.859375 C 32.941406 -3.328125 29.851562 -1.503906 27.8125 0.609375 C 27.039062 -0.492188 26.195312 -1.410156 25.28125 -2.140625 C 24.363281 -2.867188 23.273438 -3.4375 22.015625 -3.84375 L 22.015625 7.640625 C 22.015625 10.410156 22.1875 12.671875 22.53125 14.421875 C 22.875 16.179688 23.410156 17.507812 24.140625 18.40625 C 21.253906 18.8125 18.054688 19.910156 14.546875 21.703125 C 11.046875 23.492188 8.742188 24.472656 7.640625 24.640625 C 8.828125 23.085938 9.703125 21.117188 10.265625 18.734375 C 10.835938 16.347656 11.125 13.484375 11.125 10.140625 L 11.125 -7.03125 L 9.78125 -7.03125 C 7.988281 -7.03125 6.359375 -6.445312 4.890625 -5.28125 C 3.421875 -4.125 2.117188 -2.425781 0.984375 -0.1875 C 0.941406 -0.34375 0.910156 -0.515625 0.890625 -0.703125 C 0.867188 -0.890625 0.859375 -1.207031 0.859375 -1.65625 C 0.859375 -4.257812 1.820312 -6.820312 3.75 -9.34375 C 5.6875 -11.875 8.144531 -13.769531 11.125 -15.03125 Z M 22.015625 -15.890625 C 24.984375 -15.203125 27.597656 -14.0625 29.859375 -12.46875 C 32.117188 -10.882812 33.984375 -8.890625 35.453125 -6.484375 L 39.1875 -8.015625 L 39.1875 -45.546875 C 38.207031 -46.035156 37.269531 -46.675781 36.375 -47.46875 C 35.476562 -48.257812 34.5 -49.289062 33.4375 -50.5625 L 22.015625 -41.328125 Z M 22.015625 -15.890625 "/></g></g></g><g fill="#000000" fill-opacity="1"><g transform="translate(115.494159, 155.336577)"><g><path d="M 18.09375 1.890625 C 16.46875 -0.710938 14.421875 -2.757812 11.953125 -4.25 C 9.484375 -5.738281 6.945312 -6.484375 4.34375 -6.484375 C 3.8125 -6.484375 3.398438 -6.484375 3.109375 -6.484375 C 2.828125 -6.484375 2.523438 -6.460938 2.203125 -6.421875 C 3.015625 -7.804688 4.03125 -9.023438 5.25 -10.078125 C 6.476562 -11.140625 7.96875 -12.082031 9.71875 -12.90625 L 9.71875 -39.796875 C 9.71875 -43.460938 9.15625 -45.882812 8.03125 -47.0625 C 6.914062 -48.25 4.644531 -49.003906 1.21875 -49.328125 C 3.832031 -50.835938 6.164062 -52.617188 8.21875 -54.671875 C 10.28125 -56.734375 12.066406 -59.09375 13.578125 -61.75 C 16.054688 -60.15625 17.863281 -58.164062 19 -55.78125 C 20.144531 -53.394531 20.71875 -50.328125 20.71875 -46.578125 L 31.96875 -61.75 C 32.945312 -59.132812 33.90625 -57.304688 34.84375 -56.265625 C 35.78125 -55.234375 36.921875 -54.71875 38.265625 -54.71875 C 38.878906 -54.71875 39.5 -54.835938 40.125 -55.078125 C 40.757812 -55.328125 41.425781 -55.71875 42.125 -56.25 C 41.789062 -52.988281 40.757812 -50.328125 39.03125 -48.265625 C 37.300781 -46.203125 35.335938 -45.171875 33.140625 -45.171875 C 31.628906 -45.171875 30.207031 -45.546875 28.875 -46.296875 C 27.550781 -47.054688 26.34375 -48.191406 25.25 -49.703125 L 20.71875 -43.59375 L 20.71875 -13.015625 C 22.394531 -12.453125 23.820312 -11.84375 25 -11.1875 C 26.1875 -10.53125 27.1875 -9.796875 28 -8.984375 L 30.265625 -10.640625 L 31.484375 -9.421875 C 28.390625 -7.378906 25.71875 -5.421875 23.46875 -3.546875 C 21.226562 -1.671875 19.4375 0.140625 18.09375 1.890625 Z M 18.09375 1.890625 "/></g></g></g><g fill="#000000" fill-opacity="1"><g transform="translate(153.955392, 155.336577)"><g><path d="M 20.90625 -14.25 C 23.03125 -13.46875 24.832031 -12.46875 26.3125 -11.25 C 27.800781 -10.03125 29.054688 -8.539062 30.078125 -6.78125 C 30.929688 -7.070312 31.9375 -7.359375 33.09375 -7.640625 C 34.257812 -7.921875 35.863281 -8.289062 37.90625 -8.75 L 37.96875 -45.546875 C 36.132812 -45.953125 34.484375 -46.710938 33.015625 -47.828125 C 31.546875 -48.953125 30.054688 -50.578125 28.546875 -52.703125 C 28.054688 -52.578125 27.34375 -52.375 26.40625 -52.09375 C 23.957031 -51.394531 22.125 -50.925781 20.90625 -50.6875 Z M 3 -4.03125 C 3.320312 -5.988281 4.019531 -7.722656 5.09375 -9.234375 C 6.175781 -10.742188 7.738281 -12.128906 9.78125 -13.390625 L 9.78125 -41.9375 C 9.78125 -44.019531 9.566406 -45.84375 9.140625 -47.40625 C 8.710938 -48.976562 8.007812 -50.578125 7.03125 -52.203125 C 7.644531 -52.160156 8.328125 -52.128906 9.078125 -52.109375 C 9.828125 -52.097656 10.859375 -52.09375 12.171875 -52.09375 C 17.671875 -52.09375 22.914062 -52.894531 27.90625 -54.5 C 32.894531 -56.113281 37.488281 -58.488281 41.6875 -61.625 C 42.75 -58.894531 44.082031 -56.804688 45.6875 -55.359375 C 47.300781 -53.910156 49.109375 -53.1875 51.109375 -53.1875 C 51.472656 -53.1875 52.164062 -53.304688 53.1875 -53.546875 C 53.46875 -53.628906 53.691406 -53.691406 53.859375 -53.734375 C 53.328125 -52.390625 52.671875 -51.226562 51.890625 -50.25 C 51.117188 -49.269531 50.144531 -48.375 48.96875 -47.5625 L 48.96875 -20.296875 C 48.96875 -17.523438 49.171875 -15.054688 49.578125 -12.890625 C 49.984375 -10.734375 50.65625 -8.597656 51.59375 -6.484375 C 49.4375 -6.804688 47.828125 -7.019531 46.765625 -7.125 C 45.703125 -7.226562 44.765625 -7.28125 43.953125 -7.28125 C 39.304688 -7.28125 34.984375 -6.503906 30.984375 -4.953125 C 26.992188 -3.398438 22.960938 -0.953125 18.890625 2.390625 C 17.140625 0.222656 15.210938 -1.445312 13.109375 -2.625 C 11.015625 -3.8125 8.90625 -4.40625 6.78125 -4.40625 C 6.21875 -4.40625 5.628906 -4.375 5.015625 -4.3125 C 4.398438 -4.25 3.726562 -4.15625 3 -4.03125 Z M 3 -4.03125 "/></g></g></g><g fill="#000000" fill-opacity="1"><g transform="translate(208.921467, 155.336577)"><g><path d="M 9.53125 -45.421875 C 8.550781 -45.867188 7.664062 -46.40625 6.875 -47.03125 C 6.082031 -47.664062 5.300781 -48.472656 4.53125 -49.453125 L 1.40625 -47.5625 L 0.484375 -48.96875 C 3.179688 -50.632812 5.789062 -52.457031 8.3125 -54.4375 C 10.84375 -56.414062 13.207031 -58.503906 15.40625 -60.703125 C 16.300781 -58.703125 17.429688 -57.160156 18.796875 -56.078125 C 20.160156 -55.003906 21.660156 -54.46875 23.296875 -54.46875 C 23.578125 -54.46875 23.953125 -54.546875 24.421875 -54.703125 C 24.890625 -54.867188 25.675781 -55.195312 26.78125 -55.6875 C 26.738281 -53.738281 26.175781 -52 25.09375 -50.46875 C 24.007812 -48.9375 22.410156 -47.640625 20.296875 -46.578125 L 20.296875 -10.765625 C 22.828125 -8.679688 24.734375 -6.488281 26.015625 -4.1875 C 27.296875 -1.882812 27.9375 0.46875 27.9375 2.875 C 27.9375 7.113281 24.65625 11.332031 18.09375 15.53125 C 16.832031 16.34375 15.875 16.972656 15.21875 17.421875 C 13.300781 18.722656 11.894531 20.003906 11 21.265625 C 10.101562 22.535156 9.554688 23.945312 9.359375 25.5 C 8.984375 25.007812 8.703125 24.53125 8.515625 24.0625 C 8.335938 23.59375 8.25 23.132812 8.25 22.6875 C 8.25 20.96875 9.753906 18.265625 12.765625 14.578125 C 15.785156 10.890625 17.296875 7.820312 17.296875 5.375 C 17.296875 2.894531 15.644531 0.101562 12.34375 -3 C 11.78125 -3.53125 11.375 -3.914062 11.125 -4.15625 C 10.550781 -4.726562 10.140625 -5.347656 9.890625 -6.015625 C 9.648438 -6.691406 9.53125 -7.640625 9.53125 -8.859375 Z M 8.015625 -71.09375 L 5.5 -69.515625 L 4.640625 -70.984375 C 8.390625 -73.671875 10.9375 -75.59375 12.28125 -76.75 C 13.632812 -77.914062 14.632812 -78.96875 15.28125 -79.90625 C 16.132812 -77.820312 17.125 -76.332031 18.25 -75.4375 C 19.375 -74.539062 20.8125 -74.09375 22.5625 -74.09375 C 22.71875 -74.09375 22.957031 -74.113281 23.28125 -74.15625 C 23.613281 -74.195312 23.863281 -74.21875 24.03125 -74.21875 C 23.050781 -71.851562 21.816406 -70.054688 20.328125 -68.828125 C 18.835938 -67.609375 17.15625 -67 15.28125 -67 C 14.0625 -67 12.867188 -67.320312 11.703125 -67.96875 C 10.546875 -68.625 9.316406 -69.664062 8.015625 -71.09375 Z M 8.015625 -71.09375 "/></g></g></g><g fill="#000000" fill-opacity="1"><g transform="translate(237.84657, 155.336577)"><g><path d="M 24.515625 -53.3125 L 20.78125 -52.328125 L 20.78125 -24.140625 L 35.703125 -34.171875 Z M 3.359375 -3 C 3.359375 -5.238281 3.898438 -7.148438 4.984375 -8.734375 C 6.066406 -10.328125 7.664062 -11.550781 9.78125 -12.40625 L 9.78125 -42.1875 C 9.78125 -44.46875 9.492188 -46.441406 8.921875 -48.109375 C 8.347656 -49.785156 7.453125 -51.316406 6.234375 -52.703125 L 10.515625 -52.703125 C 15.078125 -52.703125 19.628906 -53.523438 24.171875 -55.171875 C 28.722656 -56.828125 32.300781 -58.9375 34.90625 -61.5 C 36.125 -57.507812 37.789062 -53.660156 39.90625 -49.953125 C 42.03125 -46.242188 44.5 -42.859375 47.3125 -39.796875 L 20.78125 -21.765625 L 20.78125 -13.578125 C 24.082031 -13.160156 27.085938 -12.484375 29.796875 -11.546875 C 32.515625 -10.609375 34.847656 -9.429688 36.796875 -8.015625 L 40.28125 -10.765625 L 41.453125 -9.296875 L 27.8125 2.75 C 25.25 0.507812 22.40625 -1.21875 19.28125 -2.4375 C 16.164062 -3.664062 13 -4.28125 9.78125 -4.28125 C 8.632812 -4.28125 7.539062 -4.175781 6.5 -3.96875 C 5.46875 -3.769531 4.421875 -3.445312 3.359375 -3 Z M 3.359375 -3 "/></g></g></g><g fill="#000000" fill-opacity="1"><g transform="translate(283.765547, 155.336577)"><g><path d="M 20.65625 -13.578125 C 23.757812 -13.367188 26.71875 -12.773438 29.53125 -11.796875 C 32.34375 -10.816406 34.726562 -9.554688 36.6875 -8.015625 L 40.171875 -10.875 L 41.453125 -9.421875 L 27.8125 2.75 C 24.550781 0.300781 21.492188 -1.5 18.640625 -2.65625 C 15.785156 -3.820312 12.953125 -4.40625 10.140625 -4.40625 C 8.960938 -4.40625 7.800781 -4.28125 6.65625 -4.03125 C 5.519531 -3.789062 4.34375 -3.40625 3.125 -2.875 C 3.125 -4.988281 3.648438 -6.832031 4.703125 -8.40625 C 5.765625 -9.976562 7.335938 -11.269531 9.421875 -12.28125 L 9.421875 -42.3125 C 9.421875 -44.957031 9.164062 -47.015625 8.65625 -48.484375 C 8.144531 -49.953125 7.316406 -51.359375 6.171875 -52.703125 C 6.703125 -52.660156 7.265625 -52.628906 7.859375 -52.609375 C 8.453125 -52.585938 9.296875 -52.578125 10.390625 -52.578125 C 14.390625 -52.578125 18.492188 -53.359375 22.703125 -54.921875 C 26.921875 -56.492188 30.195312 -58.460938 32.53125 -60.828125 C 33.832031 -58.710938 35.304688 -57.082031 36.953125 -55.9375 C 38.609375 -54.789062 40.3125 -54.21875 42.0625 -54.21875 C 42.59375 -54.21875 43.382812 -54.28125 44.4375 -54.40625 C 44.601562 -54.445312 44.726562 -54.46875 44.8125 -54.46875 C 43.101562 -51.820312 41.238281 -49.828125 39.21875 -48.484375 C 37.195312 -47.140625 35.109375 -46.46875 32.953125 -46.46875 C 30.546875 -46.46875 28.484375 -47.046875 26.765625 -48.203125 C 25.054688 -49.367188 23.898438 -50.988281 23.296875 -53.0625 L 20.65625 -52.203125 Z M 20.65625 -13.578125 "/></g></g></g><g fill="#000000" fill-opacity="1"><g transform="translate(326.566948, 155.336577)"><g><path d="M 5.984375 -3.125 C 6.429688 -4.875 7.21875 -6.367188 8.34375 -7.609375 C 9.46875 -8.847656 11.023438 -9.9375 13.015625 -10.875 L 13.015625 -50.5625 L 11.921875 -50.5625 C 9.921875 -50.5625 8.195312 -50.394531 6.75 -50.0625 C 5.300781 -49.738281 4.09375 -49.253906 3.125 -48.609375 C 3.195312 -49.128906 3.273438 -49.820312 3.359375 -50.6875 C 3.523438 -51.988281 3.609375 -52.820312 3.609375 -53.1875 C 3.609375 -53.71875 3.578125 -54.328125 3.515625 -55.015625 C 3.453125 -55.710938 3.335938 -56.816406 3.171875 -58.328125 C 4.273438 -57.835938 5.488281 -57.46875 6.8125 -57.21875 C 8.132812 -56.976562 9.570312 -56.859375 11.125 -56.859375 L 13.015625 -56.859375 L 13.015625 -59.109375 C 13.015625 -61.921875 12.695312 -64.148438 12.0625 -65.796875 C 11.4375 -67.453125 10.332031 -68.972656 8.75 -70.359375 C 12.082031 -70.691406 15.238281 -71.617188 18.21875 -73.140625 C 21.195312 -74.671875 24.351562 -77.003906 27.6875 -80.140625 L 28.546875 -79.234375 C 26.878906 -77.398438 25.707031 -75.195312 25.03125 -72.625 C 24.363281 -70.0625 24.03125 -66.085938 24.03125 -60.703125 L 24.03125 -56.859375 L 25.921875 -56.859375 C 27.472656 -56.859375 28.910156 -56.976562 30.234375 -57.21875 C 31.554688 -57.46875 32.75 -57.835938 33.8125 -58.328125 C 33.769531 -58.160156 33.726562 -57.914062 33.6875 -57.59375 C 33.4375 -55.632812 33.3125 -54.25 33.3125 -53.4375 C 33.3125 -52.695312 33.414062 -51.515625 33.625 -49.890625 C 33.707031 -49.316406 33.769531 -48.890625 33.8125 -48.609375 C 32.789062 -49.253906 31.554688 -49.738281 30.109375 -50.0625 C 28.660156 -50.394531 26.976562 -50.5625 25.0625 -50.5625 L 24.03125 -50.5625 L 24.03125 -13.515625 C 25.695312 -12.984375 27.160156 -12.226562 28.421875 -11.25 C 29.691406 -10.269531 30.851562 -8.984375 31.90625 -7.390625 L 35.03125 -9.65625 L 36.0625 -8.015625 C 32.84375 -5.691406 30.09375 -3.507812 27.8125 -1.46875 C 25.53125 0.570312 24.023438 2.179688 23.296875 3.359375 C 22.234375 1.242188 20.617188 -0.484375 18.453125 -1.828125 C 16.296875 -3.171875 14.015625 -3.84375 11.609375 -3.84375 C 10.835938 -3.84375 9.960938 -3.78125 8.984375 -3.65625 C 8.003906 -3.539062 7.003906 -3.363281 5.984375 -3.125 Z M 5.984375 -3.125 "/></g></g></g><g fill="#000000" fill-opacity="1"><g transform="translate(362.093987, 155.336577)"><g><path d="M 3.125 -4.53125 L 12.046875 -15.15625 C 13.878906 -12.46875 15.535156 -10.5625 17.015625 -9.4375 C 18.503906 -8.320312 20.046875 -7.765625 21.640625 -7.765625 C 22.046875 -7.765625 22.546875 -7.84375 23.140625 -8 C 23.734375 -8.164062 24.5 -8.414062 25.4375 -8.75 C 23.601562 -5 21.757812 -2.304688 19.90625 -0.671875 C 18.050781 0.953125 15.921875 1.765625 13.515625 1.765625 C 11.515625 1.765625 9.617188 1.222656 7.828125 0.140625 C 6.035156 -0.929688 4.46875 -2.488281 3.125 -4.53125 Z M 3.125 -4.53125 "/></g></g></g></svg>