<svg xmlns="http://www.w3.org/2000/svg" viewBox="0 0 24 24" fill="currentColor">
  <path d="M12 2.163c3.204 0 3.584.012 4.85.07 1.366.062 2.633.35 3.608 1.325.975.975 1.262 2.242 1.325 3.608.058 1.266.069 1.646.069 4.85s-.011 3.584-.069 4.85c-.063 1.366-.35 2.633-1.325 3.608-.975.975-2.242 1.262-3.608 1.325-1.266.058-1.646.069-4.85.069s-3.584-.011-4.85-.069c-1.366-.063-2.633-.35-3.608-1.325-.975-.975-1.262-2.242-1.325-3.608C2.175 15.747 2.163 15.367 2.163 12s.012-3.584.07-4.85c.062-1.366.35-2.633 1.325-3.608.975-.975 2.242-1.262 3.608-1.325C8.416 2.175 8.796 2.163 12 2.163zm0-2.163C8.741 0 8.332.013 7.052.072 5.775.132 4.603.425 3.635 1.393 2.667 2.361 2.374 3.533 2.314 4.81 2.255 6.09 2.243 6.5 2.243 12s.012 5.91.071 7.19c.06 1.277.353 2.45 1.321 3.418.968.968 2.14 1.261 3.418 1.321 1.28.059 1.689.071 7.19.071s5.91-.012 7.19-.071c1.277-.06 2.45-.353 3.418-1.321.968-.968 1.261-2.14 1.321-3.418.059-1.28.071-1.689.071-7.19s-.012-5.91-.071-7.19c-.06-1.277-.353-2.45-1.321-3.418C21.19.425 20.018.132 18.74.072 17.46.013 17.051 0 12 0zm0 5.838A6.162 6.162 0 0 0 5.838 12 6.162 6.162 0 0 0 12 18.162 6.162 6.162 0 0 0 18.162 12 6.162 6.162 0 0 0 12 5.838zm0 10.162A3.999 3.999 0 1 1 16 12a3.999 3.999 0 0 1-4 4zm6.406-11.845a1.44 1.44 0 1 1-2.88 0 1.44 1.44 0 0 1 2.88 0z" />
</svg>
